<svg width="47" height="46" viewBox="0 0 47 46" fill="none" xmlns="http://www.w3.org/2000/svg">
<path opacity="0.9" d="M17.3919 43.4039C18.4545 43.4039 19.3159 42.5425 19.3159 41.4799C19.3159 40.4173 18.4545 39.5559 17.3919 39.5559C16.3293 39.5559 15.4679 40.4173 15.4679 41.4799C15.4679 42.5425 16.3293 43.4039 17.3919 43.4039Z" fill="white" stroke="white" stroke-width="4" stroke-linecap="round" stroke-linejoin="round"/>
<path opacity="0.9" d="M38.5557 43.4039C39.6183 43.4039 40.4797 42.5425 40.4797 41.4799C40.4797 40.4173 39.6183 39.5559 38.5557 39.5559C37.4931 39.5559 36.6317 40.4173 36.6317 41.4799C36.6317 42.5425 37.4931 43.4039 38.5557 43.4039Z" fill="white" stroke="white" stroke-width="4" stroke-linecap="round" stroke-linejoin="round"/>
<path d="M2 2H9.69594L14.8522 27.7622C15.0282 28.648 15.51 29.4436 16.2135 30.01C16.917 30.5763 17.7973 30.8771 18.7002 30.8598H37.4013C38.3043 30.8771 39.1845 30.5763 39.888 30.01C40.5915 29.4436 41.0734 28.648 41.2493 27.7622L44.3277 11.6199H11.6199" stroke="white" stroke-width="4" stroke-linecap="round" stroke-linejoin="round"/>
</svg>
