<svg width="1792" height="1792" viewBox="0 0 1792 1792" fill="none" xmlns="http://www.w3.org/2000/svg">
<path d="M1473 626.633C1473 646.476 1466.06 663.342 1452.17 677.232L913.609 1215.97L812.443 1317.16C798.557 1331.05 781.696 1338 761.859 1338C742.023 1338 725.162 1331.05 711.276 1317.16L610.11 1215.97L340.828 946.599C326.943 932.709 320 915.843 320 896C320 876.157 326.943 859.291 340.828 845.401L441.995 744.202C455.88 730.312 472.742 723.367 492.578 723.367C512.415 723.367 529.276 730.312 543.161 744.202L761.859 963.714L1249.84 474.835C1263.72 460.945 1280.59 454 1300.42 454C1320.26 454 1337.12 460.945 1351.01 474.835L1452.17 576.034C1466.06 589.924 1473 606.79 1473 626.633Z" fill="white"/>
</svg>
