<svg width="38" height="39" viewBox="0 0 38 39" fill="none" xmlns="http://www.w3.org/2000/svg">
<path d="M34.8952 20.6186C34.5852 20.2657 34.4142 19.8119 34.4142 19.3422C34.4142 18.8724 34.5852 18.4187 34.8952 18.0658L37.3707 15.2809C37.6435 14.9766 37.8128 14.5937 37.8545 14.1872C37.8962 13.7807 37.8081 13.3714 37.6027 13.0181L33.7348 6.32666C33.5316 5.97375 33.2221 5.69402 32.8505 5.52733C32.479 5.36064 32.0642 5.31551 31.6655 5.39836L28.0297 6.13327C27.567 6.22886 27.0854 6.15181 26.6757 5.91666C26.266 5.68152 25.9565 5.30453 25.8056 4.85686L24.6259 1.31772C24.4962 0.933595 24.249 0.599961 23.9193 0.363974C23.5896 0.127987 23.1941 0.00158351 22.7887 0.0026301H15.0528C14.6311 -0.0193822 14.2138 0.0972514 13.8645 0.334717C13.5153 0.572183 13.2534 0.917427 13.1189 1.31772L12.0359 4.85686C11.885 5.30453 11.5755 5.68152 11.1658 5.91666C10.7561 6.15181 10.2745 6.22886 9.81182 6.13327L6.07929 5.39836C5.7013 5.34495 5.31596 5.40459 4.97181 5.56979C4.62765 5.73498 4.34009 5.99833 4.14534 6.32666L0.277427 13.0181C0.0669361 13.3675 -0.0277076 13.7745 0.00702711 14.1809C0.0417619 14.5873 0.204096 14.9723 0.470823 15.2809L2.92694 18.0658C3.23699 18.4187 3.40799 18.8724 3.40799 19.3422C3.40799 19.8119 3.23699 20.2657 2.92694 20.6186L0.470823 23.4035C0.204096 23.7121 0.0417619 24.0971 0.00702711 24.5035C-0.0277076 24.9099 0.0669361 25.3168 0.277427 25.6662L4.14534 32.3577C4.34859 32.7106 4.65806 32.9903 5.02964 33.157C5.40122 33.3237 5.81593 33.3688 6.21467 33.286L9.8505 32.5511C10.3131 32.4555 10.7948 32.5325 11.2045 32.7677C11.6142 33.0028 11.9237 33.3798 12.0745 33.8275L13.2543 37.3666C13.3888 37.7669 13.6507 38.1122 13.9999 38.3496C14.3491 38.5871 14.7665 38.7037 15.1882 38.6817H22.924C23.3295 38.6828 23.725 38.5564 24.0547 38.3204C24.3844 38.0844 24.6315 37.7507 24.7613 37.3666L25.941 33.8275C26.0918 33.3798 26.4013 33.0028 26.8111 32.7677C27.2208 32.5325 27.7024 32.4555 28.165 32.5511L31.8009 33.286C32.1996 33.3688 32.6143 33.3237 32.9859 33.157C33.3575 32.9903 33.667 32.7106 33.8702 32.3577L37.7381 25.6662C37.9435 25.3129 38.0316 24.9036 37.9899 24.4971C37.9482 24.0906 37.7788 23.7077 37.5061 23.4035L34.8952 20.6186ZM32.0136 23.2101L33.5608 24.9506L31.0853 29.244L28.8033 28.7799C27.4104 28.4951 25.9614 28.7318 24.7315 29.4448C23.5015 30.1578 22.5762 31.2976 22.1311 32.6478L21.3962 34.8138H16.4453L15.7491 32.6091C15.304 31.2589 14.3786 30.1191 13.1487 29.4061C11.9187 28.6931 10.4698 28.4565 9.07692 28.7412L6.79485 29.2053L4.28071 24.9313L5.82788 23.1907C6.77929 22.127 7.30529 20.75 7.30529 19.3228C7.30529 17.8957 6.77929 16.5186 5.82788 15.4549L4.28071 13.7144L6.75617 9.45967L9.03824 9.92382C10.4311 10.2085 11.88 9.97193 13.11 9.25892C14.3399 8.54591 15.2653 7.40611 15.7104 6.05591L16.4453 3.87054H21.3962L22.1311 6.07525C22.5762 7.42545 23.5015 8.56524 24.7315 9.27826C25.9614 9.99127 27.4104 10.2279 28.8033 9.94315L31.0853 9.47901L33.5608 13.7724L32.0136 15.5129C31.0729 16.5742 30.5534 17.9433 30.5534 19.3615C30.5534 20.7797 31.0729 22.1488 32.0136 23.2101ZM18.9207 11.6064C17.3907 11.6064 15.8951 12.0601 14.623 12.9101C13.3508 13.7601 12.3593 14.9683 11.7738 16.3818C11.1883 17.7953 11.0351 19.3508 11.3336 20.8514C11.6321 22.352 12.3688 23.7303 13.4507 24.8122C14.5326 25.8941 15.911 26.6309 17.4116 26.9293C18.9122 27.2278 20.4676 27.0746 21.8811 26.4891C23.2947 25.9036 24.5028 24.9121 25.3528 23.64C26.2029 22.3678 26.6566 20.8722 26.6566 19.3422C26.6566 17.2905 25.8415 15.3229 24.3908 13.8721C22.94 12.4214 20.9724 11.6064 18.9207 11.6064ZM18.9207 23.2101C18.1557 23.2101 17.4079 22.9832 16.7719 22.5582C16.1358 22.1332 15.64 21.5291 15.3473 20.8224C15.0545 20.1156 14.9779 19.3379 15.1272 18.5876C15.2764 17.8373 15.6448 17.1481 16.1857 16.6071C16.7267 16.0662 17.4159 15.6978 18.1662 15.5486C18.9165 15.3993 19.6942 15.4759 20.4009 15.7687C21.1077 16.0614 21.7118 16.5572 22.1368 17.1933C22.5618 17.8294 22.7887 18.5772 22.7887 19.3422C22.7887 20.368 22.3811 21.3518 21.6558 22.0772C20.9304 22.8026 19.9466 23.2101 18.9207 23.2101Z" fill="white"/>
</svg>
