<svg width="262" height="262" viewBox="0 0 262 262" fill="none" xmlns="http://www.w3.org/2000/svg">
<path d="M65.2727 26.1091C65.2727 19.1845 68.0235 12.5436 72.9199 7.64717C77.8163 2.75077 84.4573 0 91.3818 0H169.709C176.634 0 183.275 2.75077 188.171 7.64717C193.067 12.5436 195.818 19.1845 195.818 26.1091V52.2182H248.036C251.499 52.2182 254.819 53.5936 257.267 56.0418C259.716 58.49 261.091 61.8104 261.091 65.2727C261.091 68.735 259.716 72.0555 257.267 74.5037C254.819 76.9519 251.499 78.3273 248.036 78.3273H234.081L222.763 236.836C222.294 243.423 219.346 249.587 214.514 254.088C209.681 258.589 203.323 261.091 196.719 261.091H64.3589C57.7551 261.091 51.3966 258.589 46.5641 254.088C41.7315 249.587 38.784 243.423 38.3151 236.836L27.0229 78.3273H13.0545C9.59226 78.3273 6.27179 76.9519 3.82359 74.5037C1.37539 72.0555 0 68.735 0 65.2727C0 61.8104 1.37539 58.49 3.82359 56.0418C6.27179 53.5936 9.59226 52.2182 13.0545 52.2182H65.2727V26.1091ZM91.3818 52.2182H169.709V26.1091H91.3818V52.2182ZM53.1842 78.3273L64.372 234.982H196.732L207.92 78.3273H53.1842ZM104.436 104.436C107.899 104.436 111.219 105.812 113.667 108.26C116.116 110.708 117.491 114.029 117.491 117.491V195.818C117.491 199.28 116.116 202.601 113.667 205.049C111.219 207.497 107.899 208.873 104.436 208.873C100.974 208.873 97.6536 207.497 95.2054 205.049C92.7572 202.601 91.3818 199.28 91.3818 195.818V117.491C91.3818 114.029 92.7572 110.708 95.2054 108.26C97.6536 105.812 100.974 104.436 104.436 104.436ZM156.655 104.436C160.117 104.436 163.437 105.812 165.885 108.26C168.334 110.708 169.709 114.029 169.709 117.491V195.818C169.709 199.28 168.334 202.601 165.885 205.049C163.437 207.497 160.117 208.873 156.655 208.873C153.192 208.873 149.872 207.497 147.424 205.049C144.975 202.601 143.6 199.28 143.6 195.818V117.491C143.6 114.029 144.975 110.708 147.424 108.26C149.872 105.812 153.192 104.436 156.655 104.436Z" fill="white"/>
</svg>
