<svg width="24" height="24" viewBox="0 0 24 24" fill="none" xmlns="http://www.w3.org/2000/svg">
<path d="M5.30573 8.30597C5.10996 8.50209 5 8.76787 5 9.04498C5 9.32208 5.10996 9.58786 5.30573 9.78398L11.2097 15.694C11.4377 15.922 11.7457 16.024 12.0437 15.996C12.3137 15.996 12.5827 15.895 12.7877 15.69L18.6947 9.78298C18.7917 9.68599 18.8686 9.57086 18.9211 9.44415C18.9736 9.31744 19.0006 9.18163 19.0006 9.04448C19.0006 8.90732 18.9736 8.77151 18.9211 8.6448C18.8686 8.51809 18.7917 8.40296 18.6947 8.30597C18.5978 8.20899 18.4826 8.13206 18.3559 8.07958C18.2292 8.02709 18.0934 8.00008 17.9562 8.00008C17.8191 8.00008 17.6833 8.02709 17.5566 8.07958C17.4298 8.13206 17.3147 8.20899 17.2177 8.30597L11.9977 13.526L6.78173 8.30597C6.68486 8.20898 6.56982 8.13203 6.44319 8.07952C6.31656 8.02702 6.18082 8 6.04373 8C5.90665 8 5.77091 8.02702 5.64428 8.07952C5.51764 8.13203 5.4026 8.20898 5.30573 8.30597Z" fill="white"/>
</svg>
