<svg width="205" height="205" viewBox="0 0 205 205" fill="none" xmlns="http://www.w3.org/2000/svg">
<path d="M92.6997 29.1055H28.0363C23.1363 29.1055 18.4371 31.052 14.9723 34.5167C11.5075 37.9815 9.56104 42.6808 9.56104 47.5807V176.908C9.56104 181.807 11.5075 186.507 14.9723 189.972C18.4371 193.436 23.1363 195.383 28.0363 195.383H157.363C162.263 195.383 166.962 193.436 170.427 189.972C173.892 186.507 175.838 181.807 175.838 176.908V112.244" stroke="white" stroke-width="18.4753" stroke-linecap="round" stroke-linejoin="round"/>
<path d="M161.982 15.2512C165.657 11.5763 170.641 9.51172 175.838 9.51172C181.036 9.51172 186.02 11.5763 189.695 15.2512C193.37 18.9262 195.434 23.9105 195.434 29.1077C195.434 34.3049 193.37 39.2892 189.695 42.9641L101.937 130.722L64.9868 139.959L74.2244 103.009L161.982 15.2512Z" stroke="white" stroke-width="18.4753" stroke-linecap="round" stroke-linejoin="round"/>
</svg>
