<svg width="262" height="262" viewBox="0 0 262 262" fill="none" xmlns="http://www.w3.org/2000/svg">
<path d="M206.697 43.5156H54.3942C45.7385 43.5156 37.4373 46.9541 31.3168 53.0746C25.1963 59.1951 21.7578 67.4963 21.7578 76.152V184.94C21.7578 193.596 25.1963 201.897 31.3168 208.017C37.4373 214.138 45.7385 217.576 54.3942 217.576H206.697C215.353 217.576 223.654 214.138 229.775 208.017C235.895 201.897 239.334 193.596 239.334 184.94V76.152C239.334 67.4963 235.895 59.1951 229.775 53.0746C223.654 46.9541 215.353 43.5156 206.697 43.5156ZM199.408 65.2732L130.546 116.947L61.683 65.2732H199.408ZM206.697 195.819H54.3942C51.5089 195.819 48.7419 194.672 46.7017 192.632C44.6615 190.592 43.5154 187.825 43.5154 184.94V78.8717L124.018 139.249C125.901 140.661 128.192 141.425 130.546 141.425C132.9 141.425 135.19 140.661 137.073 139.249L217.576 78.8717V184.94C217.576 187.825 216.43 190.592 214.39 192.632C212.349 194.672 209.582 195.819 206.697 195.819Z" fill="black"/>
</svg>
