<svg width="25" height="30" viewBox="0 0 25 30" fill="none" xmlns="http://www.w3.org/2000/svg">
<path d="M23.5344 8.88411L15.2282 1.12665C14.4668 0.401112 13.481 0 12.4595 0C11.4379 0 10.4521 0.401112 9.69071 1.12665L1.3845 8.88411C0.944781 9.30306 0.593887 9.817 0.355183 10.3917C0.116479 10.9664 -0.00455812 11.5887 0.00013123 12.2172V25.1069C0.00013123 26.2803 0.43769 27.4057 1.21655 28.2355C1.99541 29.0652 3.05177 29.5313 4.15324 29.5313H20.7657C21.8671 29.5313 22.9235 29.0652 23.7024 28.2355C24.4812 27.4057 24.9188 26.2803 24.9188 25.1069V12.2024C24.9215 11.5764 24.7995 10.957 24.5609 10.385C24.3222 9.81297 23.9724 9.30141 23.5344 8.88411ZM15.2282 26.5817H9.69071V19.2077C9.69071 18.8166 9.83657 18.4415 10.0962 18.1649C10.3558 17.8883 10.7079 17.7329 11.0751 17.7329H13.8438C14.211 17.7329 14.5631 17.8883 14.8227 18.1649C15.0823 18.4415 15.2282 18.8166 15.2282 19.2077V26.5817ZM22.15 25.1069C22.15 25.4981 22.0042 25.8732 21.7446 26.1498C21.4849 26.4263 21.1328 26.5817 20.7657 26.5817H17.9969V19.2077C17.9969 18.0343 17.5594 16.9089 16.7805 16.0792C16.0017 15.2495 14.9453 14.7833 13.8438 14.7833H11.0751C9.97361 14.7833 8.91725 15.2495 8.13839 16.0792C7.35953 16.9089 6.92198 18.0343 6.92198 19.2077V26.5817H4.15324C3.78608 26.5817 3.43396 26.4263 3.17434 26.1498C2.91472 25.8732 2.76887 25.4981 2.76887 25.1069V12.2024C2.76912 11.993 2.81122 11.7861 2.89238 11.5954C2.97354 11.4046 3.09189 11.2345 3.23956 11.0963L11.5458 3.3536C11.7984 3.11716 12.1232 2.98676 12.4595 2.98676C12.7957 2.98676 13.1205 3.11716 13.3731 3.3536L21.6793 11.0963C21.827 11.2345 21.9454 11.4046 22.0265 11.5954C22.1077 11.7861 22.1498 11.993 22.15 12.2024V25.1069Z" fill="black"/>
</svg>
