<svg width="262" height="262" viewBox="0 0 262 262" fill="none" xmlns="http://www.w3.org/2000/svg">
<path fill-rule="evenodd" clip-rule="evenodd" d="M76.7244 0.783273C90.6493 0.145024 95.0879 0 130.545 0C166.01 0 170.441 0.152263 184.359 0.783273C198.262 1.41428 207.756 3.62632 216.06 6.85364C224.77 10.1328 232.659 15.2707 239.181 21.9099C245.821 28.4304 250.959 36.3208 254.237 45.0309C257.464 53.3351 259.669 62.8287 260.308 76.7244C260.946 90.6493 261.091 95.0879 261.091 130.545C261.091 166.003 260.939 170.441 260.308 184.367C259.676 198.262 257.464 207.756 254.237 216.06C250.901 224.64 246.433 231.928 239.181 239.181C232.66 245.821 224.77 250.959 216.06 254.237C207.756 257.464 198.262 259.669 184.367 260.308C170.441 260.946 166.003 261.091 130.545 261.091C95.0879 261.091 90.6493 260.939 76.7244 260.308C62.8287 259.676 53.3351 257.464 45.0309 254.237C36.4511 250.901 29.1624 246.433 21.9099 239.181C15.2695 232.66 10.1313 224.77 6.85364 216.06C3.62632 207.756 1.42152 198.262 0.783273 184.367C0.145024 170.441 0 166.01 0 130.545C0 95.0806 0.152263 90.6493 0.783273 76.7318C1.41428 62.8287 3.62632 53.3351 6.85364 45.0309C10.1328 36.3214 15.2707 28.4314 21.9099 21.9099C28.4303 15.2695 36.3207 10.1313 45.0309 6.85364C53.3351 3.62632 62.8287 1.42152 76.7244 0.783273ZM183.3 24.2815C169.535 23.6577 165.401 23.5199 130.545 23.5199C95.6898 23.5199 91.5559 23.6577 77.7906 24.2815C65.0624 24.8617 58.1508 26.9866 53.5526 28.778C47.4605 31.1423 43.109 33.9708 38.5399 38.5399C33.9781 43.109 31.1423 47.4605 28.778 53.5526C26.9866 58.1508 24.8617 65.0624 24.2815 77.7906C23.6577 91.5559 23.5199 95.6898 23.5199 130.545C23.5199 165.401 23.6577 169.535 24.2815 183.3C24.8617 196.028 26.9866 202.94 28.778 207.539C30.8694 213.209 34.2052 218.338 38.5399 222.552C42.7517 226.886 47.8818 230.222 53.5526 232.313C58.1508 234.105 65.0624 236.229 77.7906 236.809C91.5559 237.434 95.6826 237.571 130.545 237.571C165.408 237.571 169.535 237.434 183.3 236.809C196.028 236.229 202.94 234.105 207.539 232.313C213.631 229.949 217.982 227.121 222.552 222.552C226.886 218.34 230.222 213.209 232.313 207.539C234.105 202.94 236.229 196.028 236.809 183.3C237.434 169.535 237.571 165.401 237.571 130.545C237.571 95.6898 237.434 91.5559 236.809 77.7906C236.229 65.0624 234.105 58.1508 232.313 53.5526C229.949 47.4605 227.121 43.109 222.552 38.5399C217.982 33.9781 213.631 31.1423 207.539 28.778C202.94 26.9866 196.028 24.8617 183.3 24.2815ZM113.877 170.788C119.162 172.977 124.825 174.104 130.545 174.104C142.099 174.104 153.177 169.514 161.346 161.346C169.516 153.177 174.105 142.098 174.105 130.545C174.105 118.993 169.516 107.914 161.346 99.7448C153.177 91.576 142.099 86.9867 130.545 86.9867C124.825 86.9867 119.162 88.1134 113.877 90.3024C108.591 92.4914 103.79 95.6999 99.7451 99.7448C95.7004 103.79 92.4918 108.591 90.3028 113.876C88.1138 119.161 86.9872 124.825 86.9872 130.545C86.9872 136.266 88.1138 141.93 90.3028 147.215C92.4918 152.5 95.7004 157.301 99.7451 161.346C103.79 165.39 108.591 168.599 113.877 170.788ZM83.0987 83.0982C95.6825 70.5145 112.75 63.445 130.545 63.445C148.342 63.445 165.409 70.5145 177.993 83.0982C190.576 95.682 197.646 112.75 197.646 130.545C197.646 148.341 190.576 165.408 177.993 177.993C165.409 190.576 148.342 197.646 130.545 197.646C112.75 197.646 95.6825 190.576 83.0987 177.993C70.515 165.408 63.4454 148.341 63.4454 130.545C63.4454 112.75 70.515 95.682 83.0987 83.0982ZM212.524 73.4423C215.498 70.4676 217.169 66.4333 217.169 62.2266C217.169 58.0199 215.498 53.9855 212.524 51.011C209.549 48.0365 205.515 46.3654 201.308 46.3654C197.102 46.3654 193.067 48.0365 190.093 51.011C187.118 53.9855 185.447 58.0199 185.447 62.2266C185.447 66.4333 187.118 70.4676 190.093 73.4423C193.067 76.4168 197.102 78.0879 201.308 78.0879C205.515 78.0879 209.549 76.4168 212.524 73.4423Z" fill="black"/>
</svg>
