<svg width="61" height="61" viewBox="0 0 61 61" fill="none" xmlns="http://www.w3.org/2000/svg">
<path d="M35.2517 20.1437V15.1077C35.2517 13.7721 34.7211 12.4912 33.7767 11.5468C32.8323 10.6023 31.5513 10.0718 30.2157 10.0718H12.5899C11.2543 10.0718 9.97335 10.6023 9.02893 11.5468C8.0845 12.4912 7.55393 13.7721 7.55393 15.1077V45.3235C7.55393 46.6591 8.0845 47.94 9.02893 48.8844C9.97335 49.8288 11.2543 50.3594 12.5899 50.3594H30.2157C31.5513 50.3594 32.8323 49.8288 33.7767 48.8844C34.7211 47.94 35.2517 46.6591 35.2517 45.3235V40.2875" stroke="white" stroke-width="4" stroke-linecap="round" stroke-linejoin="round"/>
<path d="M50.3596 30.2158H17.6258M17.6258 30.2158L25.1798 22.6619M17.6258 30.2158L25.1798 37.7697" stroke="white" stroke-width="4" stroke-linecap="round" stroke-linejoin="round"/>
</svg>
