<svg width="48" height="45" viewBox="0 0 48 45" fill="none" xmlns="http://www.w3.org/2000/svg">
<path d="M30.2517 12.1437V7.10773C30.2517 5.77211 29.7211 4.4912 28.7767 3.54677C27.8323 2.60235 26.5513 2.07178 25.2157 2.07178H7.58989C6.25427 2.07178 4.97335 2.60235 4.02893 3.54677C3.0845 4.4912 2.55393 5.77211 2.55393 7.10773V37.3235C2.55393 38.6591 3.0845 39.94 4.02893 40.8844C4.97335 41.8288 6.25427 42.3594 7.58989 42.3594H25.2157C26.5513 42.3594 27.8323 41.8288 28.7767 40.8844C29.7211 39.94 30.2517 38.6591 30.2517 37.3235V32.2875" stroke="white" stroke-width="4" stroke-linecap="round" stroke-linejoin="round"/>
<path d="M12.6258 22.2158L45.3596 22.2158M45.3596 22.2158L37.8056 29.7698M45.3596 22.2158L37.8056 14.6619" stroke="white" stroke-width="4" stroke-linecap="round" stroke-linejoin="round"/>
</svg>
