<?xml version="1.0" encoding="UTF-8" standalone="no"?>
<!-- Created with Inkscape (http://www.inkscape.org/) -->

<svg
   width="39mm"
   height="39mm"
   viewBox="0 0 39 39"
   version="1.1"
   id="svg1"
   inkscape:version="1.3 (0e150ed6c4, 2023-07-21)"
   sodipodi:docname="logo-bola-verde.svg"
   xmlns:inkscape="http://www.inkscape.org/namespaces/inkscape"
   xmlns:sodipodi="http://sodipodi.sourceforge.net/DTD/sodipodi-0.dtd"
   xmlns="http://www.w3.org/2000/svg"
   xmlns:svg="http://www.w3.org/2000/svg">
  <sodipodi:namedview
     id="namedview1"
     pagecolor="#ffffff"
     bordercolor="#000000"
     borderopacity="0.25"
     inkscape:showpageshadow="2"
     inkscape:pageopacity="0.0"
     inkscape:pagecheckerboard="0"
     inkscape:deskcolor="#d1d1d1"
     inkscape:document-units="mm"
     inkscape:zoom="2.8391827"
     inkscape:cx="118.16781"
     inkscape:cy="117.46338"
     inkscape:window-width="1920"
     inkscape:window-height="1051"
     inkscape:window-x="-9"
     inkscape:window-y="-9"
     inkscape:window-maximized="1"
     inkscape:current-layer="layer1" />
  <defs
     id="defs1" />
  <g
     inkscape:label="Camada 1"
     inkscape:groupmode="layer"
     id="layer1">
    <g
       id="g19"
       style="display:inline"
       transform="translate(-55.697375,-26.306921)">
      <g
         id="g4"
         transform="translate(50.115005,-1.6845337)">
        <path
           style="color:#000000;fill:#96c379;-inkscape-stroke:none;fill-opacity:1"
           d="m 107.45505,31.932494 c -1.72064,0 -2.26437,1.055689 -3.33331,1.803384 -1.58209,1.106621 -2.46601,2.500777 -2.46601,4.697455 0,1.652935 0.83796,2.745611 1.86426,3.885952 1.25914,1.399052 2.93174,2.668996 5.28274,2.668996 2.23266,0 3.70551,-0.752812 4.98154,-2.064787 0.81711,-0.840121 1.35944,-1.311954 1.714,-2.580795 0.15003,-0.53687 0.41042,-1.053235 0.41042,-2.065044 0,-0.786391 -0.29395,-1.424069 -0.64628,-1.969273 -0.64672,-1.00078 -1.5788,-1.666591 -2.72577,-2.392045 -1.15293,-0.72922 -3.39945,-1.983843 -5.08159,-1.983843 z m 7.88496,6.359271 c 0,1.737432 -0.73792,3.036303 -1.87569,4.332242 -0.99604,1.134514 -2.62874,1.924564 -4.54466,1.924564 -2.24145,0 -3.91553,-1.247115 -5.08054,-2.61798 -0.92055,-1.083193 -1.6929,-2.228801 -1.6929,-3.696469 0,-1.952478 1.29401,-3.469705 2.54246,-4.416189 1.11609,-0.846139 1.69029,-1.390448 3.05081,-1.369093 1.46458,0.02299 2.91611,0.848815 4.2454,1.603168 1.07,0.607212 2.05059,1.266299 2.7584,2.23824 0.39527,0.542767 0.59672,1.218175 0.59672,2.001517 z"
           id="path65"
           sodipodi:nodetypes="sssssssssssssssssssss"
           transform="matrix(1.3872876,0,0,1.4420188,-125.78505,-7.9082092)" />
        <path
           style="color:#000000;fill:#96c379;-inkscape-stroke:none;fill-opacity:1"
           d="m 107.61133,34.146484 c -1.17449,0 -2.10891,0.67685 -2.72266,1.59961 -0.61375,0.92276 -0.93843,2.009508 -0.84252,3.100455 0.0186,0.211491 0.0488,0.357161 0.16672,0.567432 0.0874,0.155887 0.2327,0.315686 0.37307,0.412191 0.28074,0.19301 0.52898,0.37321 0.58203,0.486328 0.64768,1.380908 2.07938,2.761721 3.79883,2.761719 1.17042,-10e-7 2.41765,-0.620113 3.39258,-1.501953 0.97492,-0.881841 1.37179,-1.919542 1.37179,-3.078383 0,-0.442529 -0.14762,-0.788186 -0.45162,-1.131028 -0.30399,-0.342841 -0.57412,-0.673775 -1.00904,-0.95667 -0.45662,-0.297008 -0.82857,-0.709954 -1.28809,-0.962826 -0.54333,-0.298987 -1.03592,-0.580628 -1.51562,-0.80664 -0.61671,-0.290561 -1.21633,-0.490235 -1.85547,-0.490235 z m 0,0.556641 c 0.52236,0 1.25217,0.11463 1.83216,0.387891 0.45113,0.212555 0.74018,0.406936 1.28788,0.708333 0.45924,0.252714 0.92572,0.651588 1.35847,0.933073 0.41219,0.268108 0.63734,0.620602 0.88703,0.902189 0.24968,0.281587 0.3645,0.585145 0.3645,0.847579 0,0.920599 -0.46339,1.869684 -1.35699,2.677966 -0.89361,0.808282 -2.05045,1.357422 -3.01758,1.357422 -1.41071,2e-6 -2.79536,-1.147405 -3.36738,-2.366992 -0.10399,-0.22171 -0.2457,-0.360608 -0.39916,-0.475656 -0.16061,-0.120423 -0.40031,-0.3348 -0.49765,-0.51034 -0.0549,-0.09898 -0.13707,-0.346835 -0.15007,-0.546025 -0.0108,-0.165706 0.0701,-0.528297 0.0684,-0.812823 -7.3e-4,-0.1181 -0.002,-0.23145 0.009,-0.329476 0.0582,-0.531993 0.41738,-0.964171 0.72159,-1.421579 0.54147,-0.814154 1.2967,-1.351562 2.25977,-1.351562 z"
           id="path64"
           sodipodi:nodetypes="ssssscsssssssscssssssssssssscc"
           transform="matrix(1.3872876,0,0,1.4420188,-125.78505,-7.9082092)" />
        <path
           style="color:#000000;fill:#96c379;-inkscape-stroke:none;fill-opacity:1"
           d="m 108.30443,36.458529 c -1.14246,2e-6 -1.63254,0.989221 -1.63255,2.176237 0,0.495204 0.25934,0.813644 0.52894,1.180461 0.37664,0.512454 0.86772,0.985555 1.53356,0.985554 1.14245,-2e-6 2.06054,-0.978999 2.06054,-2.166015 0,-0.645923 -0.63887,-1.069575 -1.18686,-1.47084 -0.45906,-0.336142 -0.78285,-0.705398 -1.30363,-0.705397 z m -0.0165,0.310611 c 0.40162,0 0.85483,0.365792 1.26211,0.663186 0.49051,0.358162 0.98892,0.707812 0.98892,1.23067 0,0.957003 -0.84483,1.835439 -1.73014,1.835441 -0.4469,10e-7 -0.95343,-0.279797 -1.29917,-0.703175 -0.33918,-0.415329 -0.4888,-0.969712 -0.4888,-1.443622 0,-0.506108 0.13985,-0.890561 0.3714,-1.167755 0.20629,-0.246954 0.47856,-0.414745 0.89568,-0.414745 z"
           id="path63"
           sodipodi:nodetypes="sssssssssssssss"
           transform="matrix(1.3872876,0,0,1.4420188,-125.58118,-7.7992744)" />
      </g>
      <g
         id="g5"
         transform="matrix(0.96625717,0.0669486,-0.07029949,0.92019959,54.173842,0.10433749)"
         style="fill:#00ff00">
        <g
           id="g7"
           style="fill:#00ff00">
          <g
             id="g6"
             style="fill:#00ff00">
            <path
               id="path62"
               style="color:#000000;display:inline;fill:#96c379;-inkscape-stroke:none;fill-opacity:1"
               d="m 27.365255,-75.257936 c 0,10.17627 8.325443,18.502229 18.501713,18.502229 10.176271,0 18.50223,-8.325959 18.50223,-18.502229 0,-10.176269 -8.325959,-18.501712 -18.50223,-18.501712 -10.17627,0 -18.501713,8.325445 -18.501713,18.501712 z m 1.604036,0.398942 0.05529,-0.794783 1.55081,-0.213424 c 0.0532,-0.0075 0.133052,-0.01732 0.239262,-0.02945 0.05982,-0.0055 0.141629,-0.01328 0.244946,-0.02274 -0.08209,-0.02374 -0.145403,-0.04167 -0.189136,-0.05374 -0.03309,-0.0098 -0.07253,-0.02142 -0.118856,-0.03514 -0.04767,-0.01386 -0.101988,-0.03042 -0.16278,-0.04961 l -1.502234,-0.47904 0.04392,-0.634587 1.545125,-0.246496 c 0.04514,-0.0081 0.116827,-0.01877 0.214974,-0.03152 0.07893,-0.0084 0.165086,-0.01709 0.258899,-0.02584 -0.05582,-0.01301 -0.106542,-0.02545 -0.152962,-0.03772 -0.04642,-0.01229 -0.08773,-0.02358 -0.123507,-0.03359 -0.05976,-0.01478 -0.121203,-0.03301 -0.184485,-0.05529 l -1.496033,-0.454753 0.05529,-0.794784 3.137277,1.061951 -0.05064,0.729671 -1.389063,0.250114 c -0.07128,0.01483 -0.166237,0.02932 -0.284737,0.04341 -0.05734,0.0086 -0.107094,0.01574 -0.149345,0.02119 0.01582,0.0055 0.0341,0.0116 0.05529,0.01757 0.01986,0.0058 0.04401,0.01274 0.07183,0.02067 0.154776,0.04674 0.252162,0.07723 0.293005,0.09198 l 1.33997,0.455786 -0.05116,0.731739 z m 0.655257,3.971334 1.963705,0.26665 1.364258,-0.567407 0.254248,0.710551 -1.364258,0.567407 -1.28881,1.61954 -0.301791,-0.843876 0.639238,-0.684713 c 0.0061,-0.0072 0.01256,-0.0138 0.01912,-0.01964 0.06949,-0.0723 0.137223,-0.130526 0.203605,-0.175183 -0.06927,0.01641 -0.153456,0.02125 -0.252697,0.01447 -0.04295,-0.007 -0.05513,-0.0081 -0.03617,-0.0036 l -0.89762,-0.03824 z m 1.249537,-12.370304 c 0.01216,-0.208018 0.06674,-0.402877 0.164331,-0.584977 0.0956,-0.178329 0.225202,-0.326949 0.38809,-0.445451 0.16172,-0.11922 0.344778,-0.200158 0.54932,-0.242879 0.202029,-0.04093 0.409449,-0.04156 0.622701,-0.0021 0.21424,0.04344 0.419406,0.125192 0.615466,0.24598 0.199564,0.122944 0.368741,0.271763 0.506946,0.445451 0.14054,0.175125 0.244233,0.367501 0.311609,0.577742 0.06737,0.210241 0.09466,0.421565 0.08165,0.63407 -0.01467,0.20981 -0.0694,0.403251 -0.164331,0.580326 -0.09695,0.180841 -0.226009,0.330586 -0.387057,0.448552 -0.165401,0.120293 -0.348638,0.199295 -0.54932,0.237711 -0.204722,0.04595 -0.413247,0.0479 -0.626318,0.0052 -0.207237,-0.03914 -0.411636,-0.120773 -0.612366,-0.24443 -0.200729,-0.123663 -0.369391,-0.271965 -0.506429,-0.444934 -0.138878,-0.172431 -0.242752,-0.366744 -0.311609,-0.58291 -0.0694,-0.206473 -0.09686,-0.415566 -0.08268,-0.627352 z m 0.72347,0.106454 c -0.0033,0.102396 0.01739,0.207945 0.06201,0.317293 0.0874,0.219233 0.2486,0.40119 0.483175,0.545703 0.239242,0.14739 0.466792,0.206837 0.682646,0.177767 0.218187,-0.02763 0.379336,-0.139178 0.483691,-0.33383 0.101658,-0.189633 0.108582,-0.393649 0.02119,-0.612882 -0.08573,-0.216539 -0.246783,-0.398201 -0.483691,-0.544153 -0.233407,-0.143795 -0.461654,-0.200494 -0.684196,-0.170532 -0.221868,0.02871 -0.382858,0.136376 -0.483175,0.323494 -0.05117,0.09544 -0.07837,0.194743 -0.08165,0.29714 z m 0.872298,18.100186 2.308903,-2.393135 0.488859,0.544152 -0.487309,2.022616 c -0.0074,0.03773 -0.03303,0.113517 -0.077,0.227376 -0.02006,0.05492 -0.04281,0.113734 -0.06873,0.176734 -0.02783,0.06296 -0.05701,0.130959 -0.08785,0.203088 0.04486,-0.05653 0.08657,-0.109171 0.125573,-0.157613 0.039,-0.04844 0.07545,-0.09351 0.109555,-0.134876 0.05749,-0.06961 0.121281,-0.140439 0.191202,-0.212907 l 1.140499,-1.182356 0.49196,0.54777 -2.308903,2.392619 -0.49196,-0.547254 0.481108,-2.016414 c 0.01415,-0.04478 0.04041,-0.120051 0.07855,-0.225826 0.02386,-0.05485 0.04959,-0.114277 0.07648,-0.178284 0.02499,-0.06404 0.05287,-0.13251 0.08372,-0.204638 -0.08296,0.10806 -0.161109,0.204166 -0.234094,0.287837 -0.05652,0.0686 -0.120311,0.139434 -0.191203,0.212907 l -1.140499,1.182357 z m 1.996777,-10.206612 c 0,-6.339163 5.061172,-11.402404 11.400338,-11.402404 6.339165,0 11.402405,5.063241 11.402405,11.402404 0,6.339166 -5.06324,11.402405 -11.402405,11.402405 -6.339166,0 -11.400338,-5.063239 -11.400338,-11.402405 z m 0.373104,-12.728421 c 0.01447,-0.219247 0.06841,-0.422543 0.161231,-0.610299 0.08954,-0.185186 0.213248,-0.340291 0.371036,-0.464571 0.154524,-0.121708 0.328537,-0.201086 0.521932,-0.238745 0.192601,-0.03883 0.389875,-0.03332 0.592729,0.01654 0.199882,0.0504 0.390185,0.1398 0.569991,0.268718 0.179219,0.132965 0.335245,0.29763 0.468705,0.49351 0.135845,0.199378 0.23438,0.408715 0.295073,0.627868 0.06228,0.221486 0.08442,0.442742 0.06666,0.664559 -0.01782,0.221814 -0.07287,0.427574 -0.164848,0.6165 -0.09251,0.185735 -0.215534,0.339069 -0.368969,0.45992 -0.1567,0.123423 -0.330419,0.203878 -0.521932,0.241846 -0.196367,0.03821 -0.393472,0.03144 -0.591179,-0.02067 -0.204235,-0.04697 -0.3957,-0.136399 -0.574125,-0.2682 -0.174452,-0.125969 -0.33,-0.289348 -0.466638,-0.489893 -0.136638,-0.200544 -0.234658,-0.409881 -0.294556,-0.627868 -0.06178,-0.218297 -0.08375,-0.441323 -0.06511,-0.66921 z m 0.718819,0.119372 c -0.0029,0.238759 0.07545,0.475678 0.235128,0.710035 0.162853,0.23902 0.348005,0.392134 0.556038,0.459403 0.209623,0.0696 0.39874,0.03773 0.567408,-0.09508 0.164317,-0.129422 0.248278,-0.313661 0.251147,-0.552421 0.0034,-0.23557 -0.07593,-0.471795 -0.237195,-0.708484 -0.158881,-0.233191 -0.34518,-0.384357 -0.559655,-0.453719 -0.213388,-0.07022 -0.401133,-0.0414 -0.563274,0.0863 -0.165405,0.130279 -0.24861,0.314904 -0.249597,0.553971 z m 1.421102,26.808699 1.497066,-3.047359 0.655774,0.370003 -1.497066,3.047359 z m 2.881995,-30.428116 0.547253,-0.138493 c 0.404239,-0.102154 0.697462,-0.150028 0.88005,-0.144177 0.177342,0.0071 0.343567,0.05101 0.498161,0.132292 0.200267,0.106859 0.367119,0.26447 0.500744,0.472839 0.136554,0.209115 0.236608,0.461119 0.30024,0.75551 0.06424,0.297207 0.07782,0.571718 0.04082,0.823205 -0.03437,0.250824 -0.119343,0.472423 -0.254765,0.665592 -0.102947,0.144859 -0.229774,0.26168 -0.380855,0.350367 -0.158956,0.09067 -0.405846,0.178457 -0.740524,0.263033 l -0.119889,0.03049 -0.54777,0.137976 z m 0.687296,31.999596 0.148829,-0.798401 0.590661,0.125057 0.480591,-2.577103 0.720886,0.152445 -0.480074,2.577104 0.590145,0.125057 -0.148828,0.798917 z m 0.182935,-31.430638 0.399976,1.850533 0.120406,-0.02997 c 0.280866,-0.07098 0.469204,-0.196834 0.565857,-0.377238 0.09857,-0.177917 0.113126,-0.428296 0.04341,-0.750858 -0.0688,-0.318337 -0.184238,-0.536342 -0.346749,-0.654224 -0.162206,-0.116471 -0.383454,-0.139372 -0.663009,-0.06873 z m 4.572848,31.159854 a 0.46131589,0.48440555 1.899846e-6 0 1 0,-0.06925 0.46131589,0.48440555 1.899846e-6 0 1 0.494026,-0.448034 0.46131589,0.48440555 1.899846e-6 0 1 0.426331,0.518314 0.46131589,0.48440555 1.899846e-6 0 1 -0.49351,0.448035 0.46131589,0.48440555 1.899846e-6 0 1 -0.426847,-0.449068 z m 0.136425,-30.901472 a 0.46131589,0.48440555 1.899846e-6 0 1 0,-0.06873 0.46131589,0.48440555 1.899846e-6 0 1 0.49351,-0.448034 0.46131589,0.48440555 1.899846e-6 0 1 0.426848,0.518314 0.46131589,0.48440555 1.899846e-6 0 1 -0.49351,0.448035 0.46131589,0.48440555 1.899846e-6 0 1 -0.426848,-0.449585 z m 2.849956,0.880566 c -0.0088,-0.197188 0.01124,-0.407031 0.05943,-0.629935 0.06363,-0.294391 0.163684,-0.546395 0.30024,-0.75551 0.133629,-0.208369 0.300473,-0.36598 0.500745,-0.472839 0.154598,-0.08128 0.320297,-0.125167 0.497644,-0.132292 0.182593,-0.0059 0.476318,0.04202 0.880567,0.144177 l 0.547253,0.138493 -0.723987,3.348633 -0.547253,-0.137976 -0.11989,-0.03049 c -0.334684,-0.08458 -0.581563,-0.172361 -0.740523,-0.263033 -0.151085,-0.08869 -0.278422,-0.205508 -0.381372,-0.350367 -0.135425,-0.193168 -0.220399,-0.414768 -0.254765,-0.665592 -0.0092,-0.06287 -0.01517,-0.12754 -0.01809,-0.19327 z m 0.04702,29.895849 0.590662,-0.125057 -0.480591,-2.577104 0.721403,-0.152445 0.480591,2.577103 0.590145,-0.125057 0.149345,0.798401 -1.902727,0.403076 z m 0.697115,-29.912385 c 0.0072,0.12512 0.03546,0.231952 0.08475,0.32091 0.09665,0.180404 0.285499,0.306262 0.566373,0.377238 l 0.11989,0.02997 0.399975,-1.850533 -0.119889,-0.03049 c -0.279562,-0.07064 -0.500282,-0.04774 -0.662492,0.06873 -0.162515,0.117882 -0.278459,0.335887 -0.347266,0.654224 -0.03486,0.161281 -0.04856,0.304828 -0.04134,0.429948 z m 2.770891,26.05939 0.655773,-0.370003 1.497067,3.047359 -0.655774,0.370003 z m 1.245402,-23.493139 c -0.01776,-0.221817 0.0044,-0.443073 0.06666,-0.664559 0.06069,-0.219152 0.159224,-0.42849 0.295073,-0.627868 0.133462,-0.19588 0.289481,-0.360545 0.468705,-0.49351 0.17981,-0.128918 0.369587,-0.218319 0.569474,-0.268718 0.202859,-0.04986 0.400639,-0.05537 0.593246,-0.01654 0.193399,0.03766 0.367404,0.117037 0.521932,0.238745 0.157791,0.12428 0.281495,0.279385 0.371036,0.464571 0.09282,0.187756 0.146758,0.391052 0.161231,0.610299 0.01864,0.227887 -0.0033,0.450913 -0.06511,0.66921 -0.0599,0.217986 -0.157913,0.427324 -0.294555,0.627868 -0.136642,0.200545 -0.292183,0.363924 -0.466638,0.489893 -0.178429,0.1318 -0.369885,0.221228 -0.574126,0.2682 -0.19771,0.05211 -0.394806,0.05888 -0.591178,0.02067 -0.191518,-0.03797 -0.365745,-0.118423 -0.522449,-0.241846 -0.153439,-0.120851 -0.27646,-0.274185 -0.368969,-0.45992 -0.09198,-0.188926 -0.146512,-0.394686 -0.164331,-0.6165 z m 0.718819,-0.116272 c 0.0029,0.23876 0.08631,0.422999 0.25063,0.552421 0.168673,0.132815 0.35778,0.164687 0.567408,0.09508 0.208038,-0.06727 0.393698,-0.220383 0.556555,-0.459404 0.159683,-0.234355 0.237997,-0.471275 0.235128,-0.710034 -9.87e-4,-0.239066 -0.08419,-0.423692 -0.249598,-0.553971 -0.162143,-0.127705 -0.34988,-0.156516 -0.563273,-0.0863 -0.21448,0.06936 -0.401287,0.220529 -0.560172,0.453719 -0.16127,0.236689 -0.240052,0.472915 -0.236678,0.708484 z m 0.562756,21.934578 0.49196,-0.54777 1.140499,1.182356 c 0.06992,0.07247 0.133713,0.143294 0.191202,0.212907 0.0341,0.04137 0.07056,0.08644 0.109554,0.134876 0.039,0.04844 0.08071,0.101082 0.125574,0.157613 -0.03085,-0.07213 -0.06002,-0.140128 -0.08785,-0.203088 -0.02592,-0.063 -0.04919,-0.121814 -0.06925,-0.176734 -0.04397,-0.113859 -0.06958,-0.189645 -0.077,-0.227376 l -0.486792,-2.022616 0.488859,-0.544152 2.308903,2.393135 -0.488859,0.544153 -1.140499,-1.182357 c -0.07089,-0.07347 -0.134685,-0.144303 -0.191203,-0.212907 -0.07299,-0.08367 -0.151132,-0.179778 -0.234094,-0.287837 0.03084,0.07213 0.05872,0.140597 0.08372,0.204638 0.02689,0.06401 0.05262,0.123434 0.07648,0.178284 0.03814,0.105775 0.06388,0.181048 0.07803,0.225826 l 0.481625,2.016414 -0.49196,0.547254 z m 2.491321,-17.21962 c -0.01301,-0.212505 0.01427,-0.423829 0.08165,-0.63407 0.06738,-0.210241 0.171066,-0.402617 0.311609,-0.577743 0.138207,-0.173686 0.307378,-0.322506 0.506945,-0.44545 0.196066,-0.120788 0.401221,-0.20254 0.615467,-0.24598 0.213256,-0.03949 0.420667,-0.03887 0.622701,0.0021 0.204546,0.04272 0.387596,0.123659 0.54932,0.242879 0.162892,0.118502 0.292486,0.267121 0.38809,0.445451 0.09759,0.1821 0.152172,0.376959 0.164331,0.584977 0.01418,0.211786 -0.01328,0.420879 -0.08268,0.627352 -0.06886,0.216166 -0.172727,0.410479 -0.311609,0.58291 -0.137042,0.172969 -0.305695,0.321271 -0.506429,0.444934 -0.200736,0.123657 -0.405124,0.205295 -0.612366,0.24443 -0.213077,0.04273 -0.421591,0.04078 -0.626318,-0.0052 -0.200687,-0.03842 -0.383914,-0.117419 -0.549321,-0.237711 -0.16105,-0.117966 -0.290102,-0.267711 -0.387056,-0.448552 -0.09493,-0.177075 -0.149656,-0.370516 -0.164331,-0.580326 z m 0.72347,-0.110071 c 0.0036,0.102217 0.03082,0.200773 0.08165,0.295589 0.104358,0.194652 0.265498,0.306198 0.483691,0.33383 0.215859,0.02907 0.443398,-0.03038 0.682646,-0.177767 0.23458,-0.144513 0.395778,-0.32647 0.483174,-0.545703 0.08924,-0.218696 0.0827,-0.423545 -0.01964,-0.614433 -0.100318,-0.187118 -0.2613,-0.294786 -0.483174,-0.323494 -0.222547,-0.02996 -0.450783,0.02674 -0.684196,0.170532 -0.236914,0.145952 -0.398471,0.327614 -0.484208,0.544153 -0.0437,0.109616 -0.06351,0.215076 -0.05995,0.317293 z m 0.183968,12.2623 0.254248,-0.710551 1.364258,0.567407 1.963704,-0.26665 -0.302823,0.845943 -0.89762,0.03824 c 0.01896,-0.0045 0.0068,-0.0033 -0.03617,0.0036 -0.09924,0.0068 -0.183427,0.0019 -0.252697,-0.01447 0.06638,0.04466 0.134108,0.102885 0.203605,0.175183 0.0066,0.0058 0.01303,0.01242 0.01912,0.01964 l 0.639754,0.684713 -0.302307,0.843876 -1.28881,-1.61954 z m 0.821655,-7.311698 3.137277,-1.061951 0.05529,0.794784 -1.496032,0.454752 c -0.06328,0.02228 -0.124727,0.04051 -0.184485,0.05529 -0.03577,0.01001 -0.07708,0.0213 -0.123507,0.03359 -0.04642,0.01228 -0.09714,0.02472 -0.152962,0.03772 0.09381,0.0087 0.179968,0.01741 0.258899,0.02584 0.09815,0.01275 0.169831,0.02339 0.214974,0.03152 l 1.545125,0.246496 0.04392,0.634587 -1.502234,0.47904 c -0.06079,0.01919 -0.115113,0.03575 -0.162781,0.04961 -0.04632,0.01372 -0.08577,0.02535 -0.118855,0.03514 -0.04373,0.01207 -0.107043,0.03 -0.189136,0.05374 0.10332,0.0095 0.185123,0.0172 0.244946,0.02274 0.106213,0.01213 0.186056,0.02195 0.239262,0.02945 l 1.55081,0.213424 0.05529,0.794783 -3.250965,-0.56844 -0.05116,-0.731739 1.339969,-0.455786 c 0.04084,-0.01476 0.138226,-0.04524 0.293006,-0.09198 0.02782,-0.0079 0.05197,-0.01484 0.07183,-0.02067 0.0212,-0.006 0.03947,-0.01204 0.05529,-0.01757 -0.04225,-0.0054 -0.092,-0.01254 -0.149345,-0.02119 -0.118503,-0.01409 -0.21346,-0.02858 -0.284737,-0.04341 l -1.389063,-0.250114 z"
               transform="matrix(0.07864745,1.0809988,-1.029472,0.07489865,-55.778657,3.9447589)" />
          </g>
        </g>
      </g>
    </g>
  </g>
</svg>
