<svg width="2872" height="2873" viewBox="0 0 2872 2873" fill="none" xmlns="http://www.w3.org/2000/svg">
<path d="M897.5 1616.17H1615.5V1795.67H897.5V1616.17Z" fill="white"/>
<path d="M897.5 1167.42H1974.5V1346.92H897.5V1167.42Z" fill="white"/>
<path d="M897.5 2064.92H1346.25V2244.42H897.5V2064.92Z" fill="white"/>
<path d="M2243.75 449.418H1974.5V359.668C1974.5 312.062 1955.59 266.405 1921.93 232.742C1888.26 199.08 1842.61 180.168 1795 180.168H1077C1029.39 180.168 983.737 199.08 950.074 232.742C916.412 266.405 897.5 312.062 897.5 359.668V449.418H628.25C580.644 449.418 534.987 468.33 501.324 501.992C467.662 535.655 448.75 581.312 448.75 628.918V2513.67C448.75 2561.27 467.662 2606.93 501.324 2640.59C534.987 2674.26 580.644 2693.17 628.25 2693.17H2243.75C2291.36 2693.17 2337.01 2674.26 2370.68 2640.59C2404.34 2606.93 2423.25 2561.27 2423.25 2513.67V628.918C2423.25 581.312 2404.34 535.655 2370.68 501.992C2337.01 468.33 2291.36 449.418 2243.75 449.418ZM1077 359.668H1795V718.668H1077V359.668ZM2243.75 2513.67H628.25V628.918H897.5V898.168H1974.5V628.918H2243.75V2513.67Z" fill="white"/>
</svg>
