<svg width="24" height="44" viewBox="0 0 24 44" fill="none" xmlns="http://www.w3.org/2000/svg">
<path fill-rule="evenodd" clip-rule="evenodd" d="M4.28428 36.5849C4.89299 37.1708 5.87746 37.1708 6.48468 36.5849L19.3549 24.1694C19.643 23.8957 19.8724 23.5663 20.0291 23.2013C20.1859 22.8362 20.2667 22.4431 20.2667 22.0458C20.2667 21.6485 20.1859 21.2554 20.0291 20.8903C19.8724 20.5253 19.643 20.1959 19.3549 19.9222L6.39149 7.41504C6.09728 7.13552 5.70767 6.97841 5.30178 6.97562C4.89589 6.97283 4.50415 7.12457 4.20612 7.40002C4.05849 7.53604 3.94036 7.70091 3.85905 7.88442C3.77774 8.06793 3.73499 8.26617 3.73344 8.46687C3.73189 8.66756 3.77158 8.86644 3.85004 9.05118C3.9285 9.23592 4.04407 9.4026 4.18959 9.54088L16.0543 20.9844C16.1985 21.1212 16.3133 21.286 16.3917 21.4686C16.4702 21.6512 16.5106 21.8478 16.5106 22.0466C16.5106 22.2453 16.4702 22.4419 16.3917 22.6245C16.3133 22.8071 16.1985 22.9719 16.0543 23.1087L4.28428 34.4621C4.14016 34.5988 4.02538 34.7634 3.94695 34.9459C3.86852 35.1284 3.82808 35.3249 3.82808 35.5235C3.82808 35.7221 3.86852 35.9186 3.94695 36.1011C4.02538 36.2836 4.14016 36.4482 4.28428 36.5849Z" fill="#9E9E9E"/>
</svg>
