<svg width="27" height="27" viewBox="0 0 27 27" fill="none" xmlns="http://www.w3.org/2000/svg">
<path fill-rule="evenodd" clip-rule="evenodd" d="M13.5 0C6.04418 0 0 6.0441 0 13.5C0 20.9558 6.04418 27 13.5 27C20.9559 27 27 20.9558 27 13.5C27 6.0441 20.9559 0 13.5 0ZM13.5 24.3C7.54489 24.3 2.7 19.4551 2.7 13.5C2.7 7.54489 7.54489 2.7 13.5 2.7C19.4552 2.7 24.3 7.54489 24.3 13.5C24.3 19.4551 19.4552 24.3 13.5 24.3ZM15.1905 8.1C15.1905 9.0788 14.4778 9.7875 13.5137 9.7875C12.5106 9.7875 11.8155 9.0788 11.8155 8.08128C11.8155 7.12253 12.5294 6.4125 13.5137 6.4125C14.4778 6.4125 15.1905 7.12253 15.1905 8.1ZM12.153 12.15H14.853V20.25H12.153V12.15Z" fill="white"/>
</svg>
