<svg width="101" height="101" viewBox="0 0 101 101" fill="none" xmlns="http://www.w3.org/2000/svg">
<path fill-rule="evenodd" clip-rule="evenodd" d="M52.0957 54.4219C51.5376 54.4727 50.9722 54.5 50.3999 54.5C40.2998 54.5 32.1997 46.1992 32.1997 36.1992C32.1997 26.1992 40.2998 18 50.3999 18C60.5 18 68.6001 26.3008 68.6001 36.3008C68.6001 37.1406 68.543 37.9648 68.4321 38.7773C66.4717 39.3008 64.6138 40.082 62.8901 41.0625C63.4775 39.5547 63.7998 37.9141 63.7998 36.1992C63.7998 28.8008 57.7998 22.8008 50.3999 22.8008C43 22.8008 37 28.8984 37 36.3008C37 43.6992 43 49.6016 50.3999 49.6016C51.8857 49.6016 53.3154 49.3594 54.6514 48.9141C53.5703 50.6172 52.7139 52.4609 52.0957 54.4219ZM51.3057 57.6992H39.2998C26.6997 57.6992 16.3999 68 16.3999 80.6016C16.3999 81.8984 17.5 83 18.7998 83H64.998C62.3638 81.8359 59.9839 80.1992 57.9648 78.1992H21.3999C22.6001 69.3008 30.1001 62.5 39.2998 62.5H51.021C51.0073 62.168 51 61.8359 51 61.5C51 60.207 51.1045 58.9375 51.3057 57.6992Z" fill="white"/>
<path d="M90.8952 62.6186C90.5852 62.2657 90.4142 61.8119 90.4142 61.3422C90.4142 60.8724 90.5852 60.4187 90.8952 60.0658L93.3707 57.2809C93.6435 56.9766 93.8128 56.5937 93.8545 56.1872C93.8962 55.7807 93.8081 55.3714 93.6027 55.0181L89.7348 48.3267C89.5316 47.9738 89.2221 47.694 88.8505 47.5273C88.479 47.3606 88.0642 47.3155 87.6655 47.3984L84.0297 48.1333C83.567 48.2289 83.0854 48.1518 82.6757 47.9167C82.266 47.6815 81.9565 47.3045 81.8056 46.8569L80.6259 43.3177C80.4962 42.9336 80.249 42.6 79.9193 42.364C79.5896 42.128 79.1941 42.0016 78.7887 42.0026H71.0528C70.6311 41.9806 70.2138 42.0973 69.8645 42.3347C69.5153 42.5722 69.2534 42.9174 69.1189 43.3177L68.0359 46.8569C67.885 47.3045 67.5755 47.6815 67.1658 47.9167C66.7561 48.1518 66.2745 48.2289 65.8118 48.1333L62.0793 47.3984C61.7013 47.3449 61.316 47.4046 60.9718 47.5698C60.6277 47.735 60.3401 47.9983 60.1453 48.3267L56.2774 55.0181C56.0669 55.3675 55.9723 55.7745 56.007 56.1809C56.0418 56.5873 56.2041 56.9723 56.4708 57.2809L58.9269 60.0658C59.237 60.4187 59.408 60.8724 59.408 61.3422C59.408 61.8119 59.237 62.2657 58.9269 62.6186L56.4708 65.4035C56.2041 65.7121 56.0418 66.0971 56.007 66.5035C55.9723 66.9099 56.0669 67.3168 56.2774 67.6662L60.1453 74.3577C60.3486 74.7106 60.6581 74.9903 61.0296 75.157C61.4012 75.3237 61.8159 75.3688 62.2147 75.286L65.8505 74.5511C66.3131 74.4555 66.7948 74.5325 67.2045 74.7677C67.6142 75.0028 67.9237 75.3798 68.0745 75.8275L69.2543 79.3666C69.3888 79.7669 69.6507 80.1122 69.9999 80.3496C70.3491 80.5871 70.7665 80.7037 71.1882 80.6817H78.924C79.3295 80.6828 79.725 80.5564 80.0547 80.3204C80.3844 80.0844 80.6315 79.7507 80.7613 79.3666L81.941 75.8275C82.0918 75.3798 82.4013 75.0028 82.8111 74.7677C83.2208 74.5325 83.7024 74.4555 84.165 74.5511L87.8009 75.286C88.1996 75.3688 88.6143 75.3237 88.9859 75.157C89.3575 74.9903 89.667 74.7106 89.8702 74.3577L93.7381 67.6662C93.9435 67.3129 94.0316 66.9036 93.9899 66.4971C93.9482 66.0906 93.7788 65.7077 93.5061 65.4035L90.8952 62.6186ZM88.0136 65.2101L89.5608 66.9506L87.0853 71.244L84.8033 70.7799C83.4104 70.4951 81.9614 70.7317 80.7315 71.4448C79.5015 72.1578 78.5762 73.2976 78.1311 74.6478L77.3962 76.8138H72.4453L71.7491 74.6091C71.304 73.2589 70.3786 72.1191 69.1487 71.4061C67.9187 70.6931 66.4698 70.4565 65.0769 70.7412L62.7949 71.2053L60.2807 66.9313L61.8279 65.1907C62.7793 64.127 63.3053 62.75 63.3053 61.3228C63.3053 59.8957 62.7793 58.5186 61.8279 57.4549L60.2807 55.7144L62.7562 51.4597L65.0382 51.9238C66.4311 52.2085 67.88 51.9719 69.11 51.2589C70.3399 50.5459 71.2653 49.4061 71.7104 48.0559L72.4453 45.8705H77.3962L78.1311 48.0752C78.5762 49.4255 79.5015 50.5652 80.7315 51.2783C81.9614 51.9913 83.4104 52.2279 84.8033 51.9432L87.0853 51.479L89.5608 55.7724L88.0136 57.5129C87.0729 58.5742 86.5534 59.9433 86.5534 61.3615C86.5534 62.7797 87.0729 64.1488 88.0136 65.2101ZM74.9207 53.6064C73.3907 53.6064 71.8951 54.0601 70.623 54.9101C69.3508 55.7601 68.3593 56.9683 67.7738 58.3818C67.1883 59.7953 67.0351 61.3508 67.3336 62.8514C67.6321 64.352 68.3688 65.7303 69.4507 66.8122C70.5326 67.8941 71.911 68.6309 73.4116 68.9293C74.9122 69.2278 76.4676 69.0746 77.8811 68.4891C79.2947 67.9036 80.5028 66.9121 81.3528 65.64C82.2029 64.3678 82.6566 62.8722 82.6566 61.3422C82.6566 59.2905 81.8415 57.3229 80.3908 55.8721C78.94 54.4214 76.9724 53.6064 74.9207 53.6064ZM74.9207 65.2101C74.1557 65.2101 73.4079 64.9832 72.7719 64.5582C72.1358 64.1332 71.64 63.5291 71.3473 62.8224C71.0545 62.1156 70.9779 61.3379 71.1272 60.5876C71.2764 59.8373 71.6448 59.1481 72.1857 58.6071C72.7267 58.0662 73.4159 57.6978 74.1662 57.5486C74.9165 57.3993 75.6942 57.4759 76.4009 57.7687C77.1077 58.0614 77.7118 58.5572 78.1368 59.1933C78.5618 59.8294 78.7887 60.5772 78.7887 61.3422C78.7887 62.368 78.3811 63.3518 77.6558 64.0772C76.9304 64.8026 75.9466 65.2101 74.9207 65.2101Z" fill="white"/>
</svg>
